{
    "asset" : {
        "generator" : "Khronos glTF Blender I/O v1.6.16",
        "version" : "2.0"
    },
    "scene" : 0,
    "scenes" : [
        {
            "name" : "Scene",
            "nodes" : [
                0,
                1,
                2,
                3,
                4,
                5,
                6,
                7,
                8,
                9,
                10,
                11
            ]
        }
    ],
    "nodes" : [
        {
            "name" : "Light",
            "rotation" : [
                0.16907575726509094,
                0.7558803558349609,
                -0.27217137813568115,
                0.570947527885437
            ],
            "translation" : [
                4.076245307922363,
                5.903861999511719,
                -1.0054539442062378
            ]
        },
        {
            "name" : "Camera",
            "rotation" : [
                0.483536034822464,
                0.33687159419059753,
                -0.20870360732078552,
                0.7804827094078064
            ],
            "translation" : [
                7.358891487121582,
                4.958309173583984,
                6.925790786743164
            ]
        },
        {
            "name" : "Empty",
            "rotation" : [
                0.5,
                0.5,
                -0.5,
                0.4999999701976776
            ],
            "scale" : [
                2,
                2,
                2
            ],
            "translation" : [
                0,
                0,
                -0.06353899836540222
            ]
        },
        {
            "name" : "Empty.001",
            "rotation" : [
                -0.27066993713378906,
                -0.27066993713378906,
                -0.6532517075538635,
                0.6532517075538635
            ]
        },
        {
            "mesh" : 0,
            "name" : "Triangle.1",
            "rotation" : [
                0,
                0,
                -0.7071067690849304,
                0.7071068286895752
            ]
        },
        {
            "mesh" : 1,
            "name" : "Triangle.2",
            "rotation" : [
                0,
                0,
                -0.7071067690849304,
                0.7071068286895752
            ]
        },
        {
            "mesh" : 2,
            "name" : "Triangle.3",
            "rotation" : [
                0,
                0,
                -0.7071067690849304,
                0.7071068286895752
            ]
        },
        {
            "mesh" : 3,
            "name" : "Triangle.4",
            "rotation" : [
                0,
                0,
                -0.7071067690849304,
                0.7071068286895752
            ]
        },
        {
            "mesh" : 4,
            "name" : "Triangle.5",
            "rotation" : [
                0,
                0,
                -0.7071067690849304,
                0.7071068286895752
            ]
        },
        {
            "mesh" : 5,
            "name" : "Triangle.6",
            "rotation" : [
                0,
                0,
                -0.7071067690849304,
                0.7071068286895752
            ]
        },
        {
            "mesh" : 6,
            "name" : "Triangle.7",
            "rotation" : [
                0,
                0,
                -0.7071067690849304,
                0.7071068286895752
            ]
        },
        {
            "mesh" : 7,
            "name" : "Triangle.8",
            "rotation" : [
                0,
                0,
                -0.7071067690849304,
                0.7071068286895752
            ]
        }
    ],
    "materials" : [
        {
            "doubleSided" : true,
            "name" : "White",
            "pbrMetallicRoughness" : {
                "baseColorFactor" : [
                    0.800000011920929,
                    0.800000011920929,
                    0.800000011920929,
                    1
                ],
                "metallicFactor" : 1,
                "roughnessFactor" : 0.05429863929748535
            }
        },
        {
            "doubleSided" : true,
            "name" : "Red",
            "pbrMetallicRoughness" : {
                "baseColorFactor" : [
                    0.8000000715255737,
                    0,
                    0.010610033757984638,
                    1
                ],
                "metallicFactor" : 1,
                "roughnessFactor" : 0
            }
        }
    ],
    "meshes" : [
        {
            "name" : "Plane",
            "primitives" : [
                {
                    "attributes" : {
                        "POSITION" : 0,
                        "NORMAL" : 1,
                        "TEXCOORD_0" : 2
                    },
                    "indices" : 3,
                    "material" : 0
                }
            ]
        },
        {
            "name" : "Plane.001",
            "primitives" : [
                {
                    "attributes" : {
                        "POSITION" : 4,
                        "NORMAL" : 5,
                        "TEXCOORD_0" : 6
                    },
                    "indices" : 7,
                    "material" : 1
                }
            ]
        },
        {
            "name" : "Plane.002",
            "primitives" : [
                {
                    "attributes" : {
                        "POSITION" : 8,
                        "NORMAL" : 9,
                        "TEXCOORD_0" : 10
                    },
                    "indices" : 11,
                    "material" : 0
                }
            ]
        },
        {
            "name" : "Plane.003",
            "primitives" : [
                {
                    "attributes" : {
                        "POSITION" : 12,
                        "NORMAL" : 13,
                        "TEXCOORD_0" : 14
                    },
                    "indices" : 15,
                    "material" : 1
                }
            ]
        },
        {
            "name" : "Plane.004",
            "primitives" : [
                {
                    "attributes" : {
                        "POSITION" : 16,
                        "NORMAL" : 17,
                        "TEXCOORD_0" : 18
                    },
                    "indices" : 19,
                    "material" : 0
                }
            ]
        },
        {
            "name" : "Plane.005",
            "primitives" : [
                {
                    "attributes" : {
                        "POSITION" : 20,
                        "NORMAL" : 21,
                        "TEXCOORD_0" : 22
                    },
                    "indices" : 23,
                    "material" : 1
                }
            ]
        },
        {
            "name" : "Plane.006",
            "primitives" : [
                {
                    "attributes" : {
                        "POSITION" : 24,
                        "NORMAL" : 25,
                        "TEXCOORD_0" : 26
                    },
                    "indices" : 27,
                    "material" : 0
                }
            ]
        },
        {
            "name" : "Plane.007",
            "primitives" : [
                {
                    "attributes" : {
                        "POSITION" : 28,
                        "NORMAL" : 29,
                        "TEXCOORD_0" : 30
                    },
                    "indices" : 31,
                    "material" : 1
                }
            ]
        }
    ],
    "accessors" : [
        {
            "bufferView" : 0,
            "componentType" : 5126,
            "count" : 140,
            "max" : [
                -0.09927666187286377,
                0.05000009015202522,
                0.709437906742096
            ],
            "min" : [
                -1.820723533630371,
                -0.04999994859099388,
                -0.6894379258155823
            ],
            "type" : "VEC3"
        },
        {
            "bufferView" : 1,
            "componentType" : 5126,
            "count" : 140,
            "type" : "VEC3"
        },
        {
            "bufferView" : 2,
            "componentType" : 5126,
            "count" : 140,
            "type" : "VEC2"
        },
        {
            "bufferView" : 3,
            "componentType" : 5123,
            "count" : 228,
            "type" : "SCALAR"
        },
        {
            "bufferView" : 4,
            "componentType" : 5126,
            "count" : 140,
            "max" : [
                -0.07357438653707504,
                0.05000026524066925,
                -0.0668255016207695
            ],
            "min" : [
                -1.775118350982666,
                -0.0499999038875103,
                -1.7751281261444092
            ],
            "type" : "VEC3"
        },
        {
            "bufferView" : 5,
            "componentType" : 5126,
            "count" : 140,
            "type" : "VEC3"
        },
        {
            "bufferView" : 6,
            "componentType" : 5126,
            "count" : 140,
            "type" : "VEC2"
        },
        {
            "bufferView" : 7,
            "componentType" : 5123,
            "count" : 228,
            "type" : "SCALAR"
        },
        {
            "bufferView" : 8,
            "componentType" : 5126,
            "count" : 140,
            "max" : [
                0.6902393698692322,
                0.05000036582350731,
                -0.0992787629365921
            ],
            "min" : [
                -0.7086449265480042,
                -0.04999990016222,
                -1.8204199075698853
            ],
            "type" : "VEC3"
        },
        {
            "bufferView" : 9,
            "componentType" : 5126,
            "count" : 140,
            "type" : "VEC3"
        },
        {
            "bufferView" : 10,
            "componentType" : 5126,
            "count" : 140,
            "type" : "VEC2"
        },
        {
            "bufferView" : 11,
            "componentType" : 5123,
            "count" : 228,
            "type" : "SCALAR"
        },
        {
            "bufferView" : 12,
            "componentType" : 5126,
            "count" : 140,
            "max" : [
                1.775480031967163,
                0.050000306218862534,
                -0.07354497164487839
            ],
            "min" : [
                0.06685787439346313,
                -0.05000005289912224,
                -1.7747782468795776
            ],
            "type" : "VEC3"
        },
        {
            "bufferView" : 13,
            "componentType" : 5126,
            "count" : 140,
            "type" : "VEC3"
        },
        {
            "bufferView" : 14,
            "componentType" : 5126,
            "count" : 140,
            "type" : "VEC2"
        },
        {
            "bufferView" : 15,
            "componentType" : 5123,
            "count" : 228,
            "type" : "SCALAR"
        },
        {
            "bufferView" : 16,
            "componentType" : 5126,
            "count" : 140,
            "max" : [
                1.8201159238815308,
                0.05000012367963791,
                0.6910406351089478
            ],
            "min" : [
                0.09928084909915924,
                -0.050000257790088654,
                -0.7078518867492676
            ],
            "type" : "VEC3"
        },
        {
            "bufferView" : 17,
            "componentType" : 5126,
            "count" : 140,
            "type" : "VEC3"
        },
        {
            "bufferView" : 18,
            "componentType" : 5126,
            "count" : 140,
            "type" : "VEC2"
        },
        {
            "bufferView" : 19,
            "componentType" : 5123,
            "count" : 228,
            "type" : "SCALAR"
        },
        {
            "bufferView" : 20,
            "componentType" : 5126,
            "count" : 140,
            "max" : [
                1.774437665939331,
                0.05000007525086403,
                1.7758315801620483
            ],
            "min" : [
                0.07351555675268173,
                -0.05000036582350731,
                0.06689023226499557
            ],
            "type" : "VEC3"
        },
        {
            "bufferView" : 21,
            "componentType" : 5126,
            "count" : 140,
            "type" : "VEC3"
        },
        {
            "bufferView" : 22,
            "componentType" : 5126,
            "count" : 140,
            "type" : "VEC2"
        },
        {
            "bufferView" : 23,
            "componentType" : 5123,
            "count" : 228,
            "type" : "SCALAR"
        },
        {
            "bufferView" : 24,
            "componentType" : 5126,
            "count" : 140,
            "max" : [
                0.7070587277412415,
                0.05000007525086403,
                1.8198115825653076
            ],
            "min" : [
                -0.691841721534729,
                -0.05000031366944313,
                0.09928290545940399
            ],
            "type" : "VEC3"
        },
        {
            "bufferView" : 25,
            "componentType" : 5126,
            "count" : 140,
            "type" : "VEC3"
        },
        {
            "bufferView" : 26,
            "componentType" : 5126,
            "count" : 140,
            "type" : "VEC2"
        },
        {
            "bufferView" : 27,
            "componentType" : 5123,
            "count" : 228,
            "type" : "SCALAR"
        },
        {
            "bufferView" : 28,
            "componentType" : 5126,
            "count" : 140,
            "max" : [
                -0.06692259013652802,
                0.05000007897615433,
                1.7740968465805054
            ],
            "min" : [
                -1.7761825323104858,
                -0.050000134855508804,
                0.0734860897064209
            ],
            "type" : "VEC3"
        },
        {
            "bufferView" : 29,
            "componentType" : 5126,
            "count" : 140,
            "type" : "VEC3"
        },
        {
            "bufferView" : 30,
            "componentType" : 5126,
            "count" : 140,
            "type" : "VEC2"
        },
        {
            "bufferView" : 31,
            "componentType" : 5123,
            "count" : 228,
            "type" : "SCALAR"
        }
    ],
    "bufferViews" : [
        {
            "buffer" : 0,
            "byteLength" : 1680,
            "byteOffset" : 0
        },
        {
            "buffer" : 0,
            "byteLength" : 1680,
            "byteOffset" : 1680
        },
        {
            "buffer" : 0,
            "byteLength" : 1120,
            "byteOffset" : 3360
        },
        {
            "buffer" : 0,
            "byteLength" : 456,
            "byteOffset" : 4480
        },
        {
            "buffer" : 0,
            "byteLength" : 1680,
            "byteOffset" : 4936
        },
        {
            "buffer" : 0,
            "byteLength" : 1680,
            "byteOffset" : 6616
        },
        {
            "buffer" : 0,
            "byteLength" : 1120,
            "byteOffset" : 8296
        },
        {
            "buffer" : 0,
            "byteLength" : 456,
            "byteOffset" : 9416
        },
        {
            "buffer" : 0,
            "byteLength" : 1680,
            "byteOffset" : 9872
        },
        {
            "buffer" : 0,
            "byteLength" : 1680,
            "byteOffset" : 11552
        },
        {
            "buffer" : 0,
            "byteLength" : 1120,
            "byteOffset" : 13232
        },
        {
            "buffer" : 0,
            "byteLength" : 456,
            "byteOffset" : 14352
        },
        {
            "buffer" : 0,
            "byteLength" : 1680,
            "byteOffset" : 14808
        },
        {
            "buffer" : 0,
            "byteLength" : 1680,
            "byteOffset" : 16488
        },
        {
            "buffer" : 0,
            "byteLength" : 1120,
            "byteOffset" : 18168
        },
        {
            "buffer" : 0,
            "byteLength" : 456,
            "byteOffset" : 19288
        },
        {
            "buffer" : 0,
            "byteLength" : 1680,
            "byteOffset" : 19744
        },
        {
            "buffer" : 0,
            "byteLength" : 1680,
            "byteOffset" : 21424
        },
        {
            "buffer" : 0,
            "byteLength" : 1120,
            "byteOffset" : 23104
        },
        {
            "buffer" : 0,
            "byteLength" : 456,
            "byteOffset" : 24224
        },
        {
            "buffer" : 0,
            "byteLength" : 1680,
            "byteOffset" : 24680
        },
        {
            "buffer" : 0,
            "byteLength" : 1680,
            "byteOffset" : 26360
        },
        {
            "buffer" : 0,
            "byteLength" : 1120,
            "byteOffset" : 28040
        },
        {
            "buffer" : 0,
            "byteLength" : 456,
            "byteOffset" : 29160
        },
        {
            "buffer" : 0,
            "byteLength" : 1680,
            "byteOffset" : 29616
        },
        {
            "buffer" : 0,
            "byteLength" : 1680,
            "byteOffset" : 31296
        },
        {
            "buffer" : 0,
            "byteLength" : 1120,
            "byteOffset" : 32976
        },
        {
            "buffer" : 0,
            "byteLength" : 456,
            "byteOffset" : 34096
        },
        {
            "buffer" : 0,
            "byteLength" : 1680,
            "byteOffset" : 34552
        },
        {
            "buffer" : 0,
            "byteLength" : 1680,
            "byteOffset" : 36232
        },
        {
            "buffer" : 0,
            "byteLength" : 1120,
            "byteOffset" : 37912
        },
        {
            "buffer" : 0,
            "byteLength" : 456,
            "byteOffset" : 39032
        }
    ],
    "buffers" : [
        {
            "byteLength" : 39488,
            "uri" : "data:application/octet-stream;base64,"
        }
    ]
}
