{
    "asset" : {
        "generator" : "Khronos glTF Blender I/O v1.6.16",
        "version" : "2.0"
    },
    "scene" : 0,
    "scenes" : [
        {
            "name" : "Scene",
            "nodes" : [
                0,
                1,
                2,
                3,
                4,
                5,
                6,
                7,
                8,
                12
            ]
        }
    ],
    "nodes" : [
        {
            "name" : "Light",
            "rotation" : [
                0.16907575726509094,
                0.7558803558349609,
                -0.27217137813568115,
                0.570947527885437
            ],
            "translation" : [
                4.076245307922363,
                5.903861999511719,
                -1.0054539442062378
            ]
        },
        {
            "name" : "Camera",
            "rotation" : [
                0.483536034822464,
                0.33687159419059753,
                -0.20870360732078552,
                0.7804827094078064
            ],
            "translation" : [
                7.358891487121582,
                4.958309173583984,
                6.925790786743164
            ]
        },
        {
            "mesh" : 0,
            "name" : "Board",
            "scale" : [
                10,
                1,
                2
            ],
            "translation" : [
                0,
                1,
                0
            ]
        },
        {
            "mesh" : 1,
            "name" : "Panel-1",
            "translation" : [
                -2.3230504989624023,
                -2.818894386291504,
                -2.603531837463379
            ]
        },
        {
            "mesh" : 2,
            "name" : "Panel-2",
            "translation" : [
                -5.323050498962402,
                -2.818894386291504,
                -2.603531837463379
            ]
        },
        {
            "mesh" : 3,
            "name" : "Panel-3",
            "translation" : [
                -8.323050498962402,
                -2.818894386291504,
                -2.603531837463379
            ]
        },
        {
            "mesh" : 4,
            "name" : "Panel-4",
            "translation" : [
                -11.323050498962402,
                -2.818894386291504,
                -2.603531837463379
            ]
        },
        {
            "mesh" : 5,
            "name" : "Panel-5",
            "translation" : [
                -14.323050498962402,
                -2.818894386291504,
                -2.603531837463379
            ]
        },
        {
            "mesh" : 6,
            "name" : "Panel-6",
            "translation" : [
                -17.32305145263672,
                -2.818894386291504,
                -2.603531837463379
            ]
        },
        {
            "mesh" : 7,
            "name" : "Mesh_0",
            "rotation" : [
                0,
                0,
                -0.8939000368118286,
                0.44826626777648926
            ],
            "scale" : [
                0.05407573655247688,
                0.05407573655247688,
                0.05407573655247688
            ],
            "translation" : [
                6.262193202972412,
                0.9510630369186401,
                0.7475218176841736
            ]
        },
        {
            "children" : [
                9
            ],
            "name" : "727291af152d461fa0ba70f621c1e64f.stl.cleaner.materialmerger.gle"
        },
        {
            "children" : [
                10
            ],
            "name" : "RootNode (model correction matrix)"
        },
        {
            "children" : [
                11
            ],
            "name" : "Token",
            "rotation" : [
                -0.7071068286895752,
                0,
                0,
                0.7071068286895752
            ]
        }
    ],
    "materials" : [
        {
            "doubleSided" : true,
            "name" : "Board",
            "pbrMetallicRoughness" : {
                "baseColorFactor" : [
                    0.8000000715255737,
                    0.25230634212493896,
                    0,
                    1
                ],
                "metallicFactor" : 0,
                "roughnessFactor" : 0.4000000059604645
            }
        },
        {
            "doubleSided" : true,
            "name" : "Panel",
            "pbrMetallicRoughness" : {
                "baseColorFactor" : [
                    0.8000000715255737,
                    0.7930968999862671,
                    0.6920526623725891,
                    1
                ],
                "metallicFactor" : 0,
                "roughnessFactor" : 0.4000000059604645
            }
        },
        {
            "doubleSided" : true,
            "name" : "Scene_-_Root",
            "pbrMetallicRoughness" : {
                "baseColorFactor" : [
                    0.38638409972190857,
                    0.03399496152997017,
                    0.03399496152997017,
                    1
                ],
                "roughnessFactor" : 0.6000000238418579
            }
        }
    ],
    "meshes" : [
        {
            "name" : "Cube.001",
            "primitives" : [
                {
                    "attributes" : {
                        "POSITION" : 0,
                        "NORMAL" : 1,
                        "TEXCOORD_0" : 2
                    },
                    "indices" : 3,
                    "material" : 0
                }
            ]
        },
        {
            "name" : "Circle.001",
            "primitives" : [
                {
                    "attributes" : {
                        "POSITION" : 4,
                        "NORMAL" : 5,
                        "TEXCOORD_0" : 6
                    },
                    "indices" : 7,
                    "material" : 1
                }
            ]
        },
        {
            "name" : "Circle.002",
            "primitives" : [
                {
                    "attributes" : {
                        "POSITION" : 8,
                        "NORMAL" : 9,
                        "TEXCOORD_0" : 10
                    },
                    "indices" : 7,
                    "material" : 1
                }
            ]
        },
        {
            "name" : "Circle.003",
            "primitives" : [
                {
                    "attributes" : {
                        "POSITION" : 11,
                        "NORMAL" : 12,
                        "TEXCOORD_0" : 13
                    },
                    "indices" : 7,
                    "material" : 1
                }
            ]
        },
        {
            "name" : "Circle.004",
            "primitives" : [
                {
                    "attributes" : {
                        "POSITION" : 14,
                        "NORMAL" : 15,
                        "TEXCOORD_0" : 16
                    },
                    "indices" : 7,
                    "material" : 1
                }
            ]
        },
        {
            "name" : "Circle.005",
            "primitives" : [
                {
                    "attributes" : {
                        "POSITION" : 17,
                        "NORMAL" : 18,
                        "TEXCOORD_0" : 19
                    },
                    "indices" : 7,
                    "material" : 1
                }
            ]
        },
        {
            "name" : "Circle.006",
            "primitives" : [
                {
                    "attributes" : {
                        "POSITION" : 20,
                        "NORMAL" : 21,
                        "TEXCOORD_0" : 22
                    },
                    "indices" : 7,
                    "material" : 1
                }
            ]
        },
        {
            "name" : "Mesh_0",
            "primitives" : [
                {
                    "attributes" : {
                        "POSITION" : 23,
                        "NORMAL" : 24
                    },
                    "indices" : 25,
                    "material" : 2
                }
            ]
        }
    ],
    "accessors" : [
        {
            "bufferView" : 0,
            "componentType" : 5126,
            "count" : 24,
            "max" : [
                1,
                -0.5,
                1
            ],
            "min" : [
                -1,
                -1,
                -1
            ],
            "type" : "VEC3"
        },
        {
            "bufferView" : 1,
            "componentType" : 5126,
            "count" : 24,
            "type" : "VEC3"
        },
        {
            "bufferView" : 2,
            "componentType" : 5126,
            "count" : 24,
            "type" : "VEC2"
        },
        {
            "bufferView" : 3,
            "componentType" : 5123,
            "count" : 36,
            "type" : "SCALAR"
        },
        {
            "bufferView" : 4,
            "componentType" : 5126,
            "count" : 192,
            "max" : [
                10.740254402160645,
                3.568894386291504,
                3.585806369781494
            ],
            "min" : [
                8.740254402160645,
                3.068894386291504,
                1.5858060121536255
            ],
            "type" : "VEC3"
        },
        {
            "bufferView" : 5,
            "componentType" : 5126,
            "count" : 192,
            "type" : "VEC3"
        },
        {
            "bufferView" : 6,
            "componentType" : 5126,
            "count" : 192,
            "type" : "VEC2"
        },
        {
            "bufferView" : 7,
            "componentType" : 5123,
            "count" : 372,
            "type" : "SCALAR"
        },
        {
            "bufferView" : 8,
            "componentType" : 5126,
            "count" : 192,
            "max" : [
                10.740254402160645,
                3.568894386291504,
                3.585806369781494
            ],
            "min" : [
                8.740254402160645,
                3.068894386291504,
                1.5858060121536255
            ],
            "type" : "VEC3"
        },
        {
            "bufferView" : 9,
            "componentType" : 5126,
            "count" : 192,
            "type" : "VEC3"
        },
        {
            "bufferView" : 10,
            "componentType" : 5126,
            "count" : 192,
            "type" : "VEC2"
        },
        {
            "bufferView" : 11,
            "componentType" : 5126,
            "count" : 192,
            "max" : [
                10.740254402160645,
                3.568894386291504,
                3.585806369781494
            ],
            "min" : [
                8.740254402160645,
                3.068894386291504,
                1.5858060121536255
            ],
            "type" : "VEC3"
        },
        {
            "bufferView" : 12,
            "componentType" : 5126,
            "count" : 192,
            "type" : "VEC3"
        },
        {
            "bufferView" : 13,
            "componentType" : 5126,
            "count" : 192,
            "type" : "VEC2"
        },
        {
            "bufferView" : 14,
            "componentType" : 5126,
            "count" : 192,
            "max" : [
                10.740254402160645,
                3.568894386291504,
                3.585806369781494
            ],
            "min" : [
                8.740254402160645,
                3.068894386291504,
                1.5858060121536255
            ],
            "type" : "VEC3"
        },
        {
            "bufferView" : 15,
            "componentType" : 5126,
            "count" : 192,
            "type" : "VEC3"
        },
        {
            "bufferView" : 16,
            "componentType" : 5126,
            "count" : 192,
            "type" : "VEC2"
        },
        {
            "bufferView" : 17,
            "componentType" : 5126,
            "count" : 192,
            "max" : [
                10.740254402160645,
                3.568894386291504,
                3.585806369781494
            ],
            "min" : [
                8.740254402160645,
                3.068894386291504,
                1.5858060121536255
            ],
            "type" : "VEC3"
        },
        {
            "bufferView" : 18,
            "componentType" : 5126,
            "count" : 192,
            "type" : "VEC3"
        },
        {
            "bufferView" : 19,
            "componentType" : 5126,
            "count" : 192,
            "type" : "VEC2"
        },
        {
            "bufferView" : 20,
            "componentType" : 5126,
            "count" : 192,
            "max" : [
                10.740254402160645,
                3.568894386291504,
                3.585806369781494
            ],
            "min" : [
                8.740254402160645,
                3.068894386291504,
                1.5858060121536255
            ],
            "type" : "VEC3"
        },
        {
            "bufferView" : 21,
            "componentType" : 5126,
            "count" : 192,
            "type" : "VEC3"
        },
        {
            "bufferView" : 22,
            "componentType" : 5126,
            "count" : 192,
            "type" : "VEC2"
        },
        {
            "bufferView" : 23,
            "componentType" : 5126,
            "count" : 2499,
            "max" : [
                14.60099983215332,
                40.250999450683594,
                35.97624969482422
            ],
            "min" : [
                -12.00100040435791,
                11.525842666625977,
                -0.0010000000474974513
            ],
            "type" : "VEC3"
        },
        {
            "bufferView" : 24,
            "componentType" : 5126,
            "count" : 2499,
            "type" : "VEC3"
        },
        {
            "bufferView" : 25,
            "componentType" : 5123,
            "count" : 7005,
            "type" : "SCALAR"
        }
    ],
    "bufferViews" : [
        {
            "buffer" : 0,
            "byteLength" : 288,
            "byteOffset" : 0
        },
        {
            "buffer" : 0,
            "byteLength" : 288,
            "byteOffset" : 288
        },
        {
            "buffer" : 0,
            "byteLength" : 192,
            "byteOffset" : 576
        },
        {
            "buffer" : 0,
            "byteLength" : 72,
            "byteOffset" : 768
        },
        {
            "buffer" : 0,
            "byteLength" : 2304,
            "byteOffset" : 840
        },
        {
            "buffer" : 0,
            "byteLength" : 2304,
            "byteOffset" : 3144
        },
        {
            "buffer" : 0,
            "byteLength" : 1536,
            "byteOffset" : 5448
        },
        {
            "buffer" : 0,
            "byteLength" : 744,
            "byteOffset" : 6984
        },
        {
            "buffer" : 0,
            "byteLength" : 2304,
            "byteOffset" : 7728
        },
        {
            "buffer" : 0,
            "byteLength" : 2304,
            "byteOffset" : 10032
        },
        {
            "buffer" : 0,
            "byteLength" : 1536,
            "byteOffset" : 12336
        },
        {
            "buffer" : 0,
            "byteLength" : 2304,
            "byteOffset" : 13872
        },
        {
            "buffer" : 0,
            "byteLength" : 2304,
            "byteOffset" : 16176
        },
        {
            "buffer" : 0,
            "byteLength" : 1536,
            "byteOffset" : 18480
        },
        {
            "buffer" : 0,
            "byteLength" : 2304,
            "byteOffset" : 20016
        },
        {
            "buffer" : 0,
            "byteLength" : 2304,
            "byteOffset" : 22320
        },
        {
            "buffer" : 0,
            "byteLength" : 1536,
            "byteOffset" : 24624
        },
        {
            "buffer" : 0,
            "byteLength" : 2304,
            "byteOffset" : 26160
        },
        {
            "buffer" : 0,
            "byteLength" : 2304,
            "byteOffset" : 28464
        },
        {
            "buffer" : 0,
            "byteLength" : 1536,
            "byteOffset" : 30768
        },
        {
            "buffer" : 0,
            "byteLength" : 2304,
            "byteOffset" : 32304
        },
        {
            "buffer" : 0,
            "byteLength" : 2304,
            "byteOffset" : 34608
        },
        {
            "buffer" : 0,
            "byteLength" : 1536,
            "byteOffset" : 36912
        },
        {
            "buffer" : 0,
            "byteLength" : 29988,
            "byteOffset" : 38448
        },
        {
            "buffer" : 0,
            "byteLength" : 29988,
            "byteOffset" : 68436
        },
        {
            "buffer" : 0,
            "byteLength" : 14010,
            "byteOffset" : 98424
        }
    ],
    "buffers" : [
        {
            "byteLength" : 112436,
            "uri" : "data:application/octet-stream;base64,"
        }
    ]
}
