{
    "asset" : {
        "generator" : "Khronos glTF Blender I/O v1.6.16",
        "version" : "2.0"
    },
    "scene" : 0,
    "scenes" : [
        {
            "name" : "Scene",
            "nodes" : [
                2,
                3
            ]
        }
    ],
    "nodes" : [
        {
            "mesh" : 0,
            "name" : "Selector",
            "translation" : [
                0.3862101137638092,
                0.7118658423423767,
                0.21742378175258636
            ]
        },
        {
            "mesh" : 1,
            "name" : "Switch",
            "rotation" : [
                0,
                -0.07236453145742416,
                0,
                0.9973783493041992
            ],
            "translation" : [
                0.38620999455451965,
                0.6514682173728943,
                0.21689057350158691
            ]
        },
        {
            "children" : [
                0,
                1
            ],
            "mesh" : 2,
            "name" : "TV"
        },
        {
            "name" : "Point",
            "translation" : [
                2,
                2,
                2
            ]
        }
    ],
    "materials" : [
        {
            "doubleSided" : true,
            "name" : "Main",
            "pbrMetallicRoughness" : {
                "baseColorTexture" : {
                    "index" : 0
                },
                "metallicRoughnessTexture" : {
                    "index" : 1
                }
            }
        },
        {
            "doubleSided" : true,
            "name" : "Screen",
            "pbrMetallicRoughness" : {
                "baseColorTexture" : {
                    "index" : 2
                }
            }
        }
    ],
    "meshes" : [
        {
            "name" : "Circle",
            "primitives" : [
                {
                    "attributes" : {
                        "POSITION" : 0,
                        "NORMAL" : 1,
                        "TEXCOORD_0" : 2
                    },
                    "indices" : 3,
                    "material" : 0
                }
            ]
        },
        {
            "name" : "Cube.006",
            "primitives" : [
                {
                    "attributes" : {
                        "POSITION" : 4,
                        "NORMAL" : 5,
                        "TEXCOORD_0" : 6
                    },
                    "indices" : 7,
                    "material" : 0
                }
            ]
        },
        {
            "name" : "Cube",
            "primitives" : [
                {
                    "attributes" : {
                        "POSITION" : 8,
                        "NORMAL" : 9,
                        "TEXCOORD_0" : 10
                    },
                    "indices" : 11,
                    "material" : 0
                },
                {
                    "attributes" : {
                        "POSITION" : 12,
                        "NORMAL" : 13,
                        "TEXCOORD_0" : 14
                    },
                    "indices" : 15,
                    "material" : 1
                }
            ]
        }
    ],
    "textures" : [
        {
            "sampler" : 0,
            "source" : 0
        },
        {
            "sampler" : 0,
            "source" : 1
        },
        {
            "sampler" : 0,
            "source" : 2
        }
    ],
    "images" : [
        {
            "bufferView" : 4,
            "mimeType" : "image/png",
            "name" : "retrotv0319_Main_BaseColor.png"
        },
        {
            "bufferView" : 5,
            "mimeType" : "image/png",
            "name" : "retrotv0319_Main_BaseColor.png"
        },
        {
            "bufferView" : 18,
            "mimeType" : "image/png",
            "name" : "retrotv0319_Screen_BaseColor.png"
        }
    ],
    "accessors" : [
        {
            "bufferView" : 0,
            "componentType" : 5126,
            "count" : 348,
            "max" : [
                0.033185433596372604,
                0.0331854447722435,
                0.041722845286130905
            ],
            "min" : [
                -0.03318542614579201,
                -0.03318541496992111,
                -6.05359673500061e-09
            ],
            "type" : "VEC3"
        },
        {
            "bufferView" : 1,
            "componentType" : 5126,
            "count" : 348,
            "type" : "VEC3"
        },
        {
            "bufferView" : 2,
            "componentType" : 5126,
            "count" : 348,
            "type" : "VEC2"
        },
        {
            "bufferView" : 3,
            "componentType" : 5123,
            "count" : 876,
            "type" : "SCALAR"
        },
        {
            "bufferView" : 6,
            "componentType" : 5126,
            "count" : 58,
            "max" : [
                0.03936520218849182,
                0.007011845707893372,
                0.01133238710463047
            ],
            "min" : [
                -0.03936520218849182,
                -0.00701160728931427,
                -0.0057864561676979065
            ],
            "type" : "VEC3"
        },
        {
            "bufferView" : 7,
            "componentType" : 5126,
            "count" : 58,
            "type" : "VEC3"
        },
        {
            "bufferView" : 8,
            "componentType" : 5126,
            "count" : 58,
            "type" : "VEC2"
        },
        {
            "bufferView" : 9,
            "componentType" : 5123,
            "count" : 156,
            "type" : "SCALAR"
        },
        {
            "bufferView" : 10,
            "componentType" : 5126,
            "count" : 2216,
            "max" : [
                0.5058963298797607,
                1.276137351989746,
                0.2423851191997528
            ],
            "min" : [
                -0.5058963298797607,
                0,
                -0.3004978895187378
            ],
            "type" : "VEC3"
        },
        {
            "bufferView" : 11,
            "componentType" : 5126,
            "count" : 2216,
            "type" : "VEC3"
        },
        {
            "bufferView" : 12,
            "componentType" : 5126,
            "count" : 2216,
            "type" : "VEC2"
        },
        {
            "bufferView" : 13,
            "componentType" : 5123,
            "count" : 7614,
            "type" : "SCALAR"
        },
        {
            "bufferView" : 14,
            "componentType" : 5126,
            "count" : 259,
            "max" : [
                0.2487305998802185,
                1.189925193786621,
                0.2498927116394043
            ],
            "min" : [
                -0.41671037673950195,
                0.6724137663841248,
                0.2058037668466568
            ],
            "type" : "VEC3"
        },
        {
            "bufferView" : 15,
            "componentType" : 5126,
            "count" : 259,
            "type" : "VEC3"
        },
        {
            "bufferView" : 16,
            "componentType" : 5126,
            "count" : 259,
            "type" : "VEC2"
        },
        {
            "bufferView" : 17,
            "componentType" : 5123,
            "count" : 1332,
            "type" : "SCALAR"
        }
    ],
    "bufferViews" : [
        {
            "buffer" : 0,
            "byteLength" : 4176,
            "byteOffset" : 0
        },
        {
            "buffer" : 0,
            "byteLength" : 4176,
            "byteOffset" : 4176
        },
        {
            "buffer" : 0,
            "byteLength" : 2784,
            "byteOffset" : 8352
        },
        {
            "buffer" : 0,
            "byteLength" : 1752,
            "byteOffset" : 11136
        },
        {
            "buffer" : 0,
            "byteLength" : 1057839,
            "byteOffset" : 12888
        },
        {
            "buffer" : 0,
            "byteLength" : 808036,
            "byteOffset" : 1070728
        },
        {
            "buffer" : 0,
            "byteLength" : 696,
            "byteOffset" : 1878764
        },
        {
            "buffer" : 0,
            "byteLength" : 696,
            "byteOffset" : 1879460
        },
        {
            "buffer" : 0,
            "byteLength" : 464,
            "byteOffset" : 1880156
        },
        {
            "buffer" : 0,
            "byteLength" : 312,
            "byteOffset" : 1880620
        },
        {
            "buffer" : 0,
            "byteLength" : 26592,
            "byteOffset" : 1880932
        },
        {
            "buffer" : 0,
            "byteLength" : 26592,
            "byteOffset" : 1907524
        },
        {
            "buffer" : 0,
            "byteLength" : 17728,
            "byteOffset" : 1934116
        },
        {
            "buffer" : 0,
            "byteLength" : 15228,
            "byteOffset" : 1951844
        },
        {
            "buffer" : 0,
            "byteLength" : 3108,
            "byteOffset" : 1967072
        },
        {
            "buffer" : 0,
            "byteLength" : 3108,
            "byteOffset" : 1970180
        },
        {
            "buffer" : 0,
            "byteLength" : 2072,
            "byteOffset" : 1973288
        },
        {
            "buffer" : 0,
            "byteLength" : 2664,
            "byteOffset" : 1975360
        },
        {
            "buffer" : 0,
            "byteLength" : 41295,
            "byteOffset" : 1978024
        }
    ],
    "samplers" : [
        {
            "magFilter" : 9729,
            "minFilter" : 9987
        }
    ],
    "buffers" : [
        {
            "byteLength" : 2019320,
            "uri" : "data:application/octet-stream;base64,"
        }
    ]
}
