{
    "asset" : {
        "generator" : "Khronos glTF Blender I/O v1.6.16",
        "version" : "2.0"
    },
    "scene" : 0,
    "scenes" : [
        {
            "name" : "Scene",
            "nodes" : [
                0,
                1,
                2
            ]
        }
    ],
    "nodes" : [
        {
            "name" : "Light",
            "rotation" : [
                0.16907575726509094,
                0.7558803558349609,
                -0.27217137813568115,
                0.570947527885437
            ],
            "translation" : [
                4.076245307922363,
                5.903861999511719,
                -1.0054539442062378
            ]
        },
        {
            "name" : "Camera",
            "rotation" : [
                0.483536034822464,
                0.33687159419059753,
                -0.20870360732078552,
                0.7804827094078064
            ],
            "translation" : [
                7.358891487121582,
                4.958309173583984,
                6.925790786743164
            ]
        },
        {
            "mesh" : 0,
            "name" : "Abema",
            "rotation" : [
                0,
                0.7071068286895752,
                0,
                0.7071068286895752
            ],
            "scale" : [
                61.34199523925781,
                61.34199523925781,
                61.34199523925781
            ],
            "translation" : [
                0.07782065868377686,
                0.2789018154144287,
                -0.01584944874048233
            ]
        }
    ],
    "materials" : [
        {
            "doubleSided" : true,
            "name" : "Green",
            "pbrMetallicRoughness" : {
                "baseColorFactor" : [
                    0.024157654494047165,
                    0.24620144069194794,
                    0.042311422526836395,
                    1
                ],
                "metallicFactor" : 0,
                "roughnessFactor" : 0.4000000059604645
            }
        },
        {
            "doubleSided" : true,
            "name" : "White",
            "pbrMetallicRoughness" : {
                "baseColorFactor" : [
                    1,
                    1,
                    1,
                    1
                ],
                "metallicFactor" : 0,
                "roughnessFactor" : 0.4000000059604645
            }
        }
    ],
    "meshes" : [
        {
            "name" : "Curve",
            "primitives" : [
                {
                    "attributes" : {
                        "POSITION" : 0,
                        "NORMAL" : 1,
                        "TEXCOORD_0" : 2
                    },
                    "indices" : 3,
                    "material" : 0
                },
                {
                    "attributes" : {
                        "POSITION" : 4,
                        "NORMAL" : 5,
                        "TEXCOORD_0" : 6
                    },
                    "indices" : 7,
                    "material" : 1
                }
            ]
        }
    ],
    "accessors" : [
        {
            "bufferView" : 0,
            "componentType" : 5126,
            "count" : 7679,
            "max" : [
                0.07406336069107056,
                0.03260409086942673,
                0.06716616451740265
            ],
            "min" : [
                -0.07258512079715729,
                0,
                -0.104722760617733
            ],
            "type" : "VEC3"
        },
        {
            "bufferView" : 1,
            "componentType" : 5126,
            "count" : 7679,
            "type" : "VEC3"
        },
        {
            "bufferView" : 2,
            "componentType" : 5126,
            "count" : 7679,
            "type" : "VEC2"
        },
        {
            "bufferView" : 3,
            "componentType" : 5123,
            "count" : 12108,
            "type" : "SCALAR"
        },
        {
            "bufferView" : 4,
            "componentType" : 5126,
            "count" : 2854,
            "max" : [
                0.034949891269207,
                0.03260409086942673,
                0.043580956757068634
            ],
            "min" : [
                -0.0341343879699707,
                4.656612873077393e-10,
                -0.053919486701488495
            ],
            "type" : "VEC3"
        },
        {
            "bufferView" : 5,
            "componentType" : 5126,
            "count" : 2854,
            "type" : "VEC3"
        },
        {
            "bufferView" : 6,
            "componentType" : 5126,
            "count" : 2854,
            "type" : "VEC2"
        },
        {
            "bufferView" : 7,
            "componentType" : 5123,
            "count" : 4428,
            "type" : "SCALAR"
        }
    ],
    "bufferViews" : [
        {
            "buffer" : 0,
            "byteLength" : 92148,
            "byteOffset" : 0
        },
        {
            "buffer" : 0,
            "byteLength" : 92148,
            "byteOffset" : 92148
        },
        {
            "buffer" : 0,
            "byteLength" : 61432,
            "byteOffset" : 184296
        },
        {
            "buffer" : 0,
            "byteLength" : 24216,
            "byteOffset" : 245728
        },
        {
            "buffer" : 0,
            "byteLength" : 34248,
            "byteOffset" : 269944
        },
        {
            "buffer" : 0,
            "byteLength" : 34248,
            "byteOffset" : 304192
        },
        {
            "buffer" : 0,
            "byteLength" : 22832,
            "byteOffset" : 338440
        },
        {
            "buffer" : 0,
            "byteLength" : 8856,
            "byteOffset" : 361272
        }
    ],
    "buffers" : [
        {
            "byteLength" : 370128,
            "uri" : "data:application/octet-stream;base64,"
        }
    ]
}
